<?xml version="1.0" encoding="UTF-8" standalone="no"?>
<!-- Created with Inkscape (http://www.inkscape.org/) -->

<svg
   width="100mm"
   height="100mm"
   viewBox="0 0 100 100"
   version="1.1"
   id="svg5"
   xml:space="preserve"
   sodipodi:docname="benteng_h.svg"
   inkscape:export-filename="pion_p.png"
   inkscape:export-xdpi="38.099998"
   inkscape:export-ydpi="38.099998"
   inkscape:version="1.2.2 (b0a8486541, 2022-12-01)"
   xmlns:inkscape="http://www.inkscape.org/namespaces/inkscape"
   xmlns:sodipodi="http://sodipodi.sourceforge.net/DTD/sodipodi-0.dtd"
   xmlns="http://www.w3.org/2000/svg"
   xmlns:svg="http://www.w3.org/2000/svg"><sodipodi:namedview
     id="namedview7"
     pagecolor="#ffffff"
     bordercolor="#000000"
     borderopacity="0.25"
     inkscape:showpageshadow="2"
     inkscape:pageopacity="0.0"
     inkscape:pagecheckerboard="0"
     inkscape:deskcolor="#d1d1d1"
     inkscape:document-units="mm"
     showgrid="false"
     showguides="true"
     inkscape:zoom="1.2546233"
     inkscape:cx="95.646239"
     inkscape:cy="258.64337"
     inkscape:window-width="1920"
     inkscape:window-height="1056"
     inkscape:window-x="0"
     inkscape:window-y="0"
     inkscape:window-maximized="1"
     inkscape:current-layer="layer1" /><defs
     id="defs2" /><g
     inkscape:label="Layer 1"
     inkscape:groupmode="layer"
     id="layer1"><path
       id="rect21653"
       style="fill:#282828;fill-opacity:1;fill-rule:evenodd;stroke:none;stroke-width:4.89712;stroke-linecap:square;stroke-linejoin:round;stroke-dasharray:none;stroke-opacity:1"
       d="m 71.080307,14.000278 c -0.743959,0.0084 -1.573471,0.203106 -2.256712,0.568763 -1.628036,0.871301 -2.208628,2.635181 -2.208628,6.711928 0,5.530151 2.28e-4,5.530051 -6.427227,5.160002 -6.427453,-0.37005 -6.427466,-0.370336 -6.803661,-6.260205 -0.357456,-5.596492 -0.540181,-5.870896 -3.672611,-5.509233 -3.00052,0.346434 -3.33045,0.903347 -3.67008,6.196306 -0.373149,5.815316 -0.372939,5.815441 -6.360165,5.815441 -5.987228,0 -5.987649,-1.25e-4 -6.360798,-5.815441 -0.34172,-5.325495 -0.656492,-5.847873 -3.739673,-6.202633 -3.366762,-0.387388 -3.366402,-0.387787 -3.366402,9.283704 0,5.31932 0.295785,9.967942 0.657971,10.330128 0.362184,0.362184 10.967493,0.591545 23.567343,0.509927 22.908818,-0.148404 22.908828,-0.148104 23.26999,-9.836018 0.250868,-6.729314 -0.102327,-9.974549 -1.157773,-10.626848 -0.365623,-0.225968 -0.892939,-0.33229 -1.471574,-0.325821 z M 50.08727,38.313532 c -18.816326,0 -20.818063,0.202729 -21.191693,2.142831 -0.380371,1.975109 1.275087,2.142198 21.191693,2.142198 19.916606,0 21.572697,-0.167089 21.192325,-2.142198 -0.373629,-1.940102 -2.375999,-2.142831 -21.192325,-2.142831 z m 0.01835,8.570059 c -13.381131,0 -13.381433,4.4e-5 -14.901122,9.794261 -0.835828,5.38682 -1.894138,14.063833 -2.352242,19.282314 -0.832919,9.488147 -0.832731,9.488054 16.503657,9.488054 14.789996,0 17.447272,-0.288763 18.091009,-1.966319 0.415014,-1.081509 0.04176,-7.554485 -0.82879,-14.384867 C 65.747587,62.266652 64.687389,54.474448 64.261461,51.781037 63.487047,46.883929 63.486745,46.883591 50.105618,46.883591 Z m -0.129061,41.013668 c -21.851845,0 -25.160102,0.25056 -25.815828,1.959358 -0.413663,1.077987 0.01677,2.447396 0.956586,3.042479 0.939809,0.595084 12.530954,1.08989 25.757625,1.1002 20.864788,0.01627 24.147151,-0.238571 24.795342,-1.927725 0.410903,-1.070792 0.43744,-2.448237 0.05884,-3.060825 -0.3786,-0.612587 -11.967445,-1.113487 -25.752565,-1.113487 z"
       sodipodi:nodetypes="ssssssssssssssssssssssssssssssssssss" /></g></svg>
