<?xml version="1.0" encoding="UTF-8" standalone="no"?>
<svg
   version="1.1"
   id="svg8"
   sodipodi:docname="benteng.svg"
   width="204.545"
   height="204.545"
   inkscape:export-filename="benteng.png"
   inkscape:export-xdpi="96"
   inkscape:export-ydpi="96"
   inkscape:version="1.2.2 (b0a8486541, 2022-12-01)"
   xmlns:inkscape="http://www.inkscape.org/namespaces/inkscape"
   xmlns:sodipodi="http://sodipodi.sourceforge.net/DTD/sodipodi-0.dtd"
   xmlns="http://www.w3.org/2000/svg"
   xmlns:svg="http://www.w3.org/2000/svg">
  <sodipodi:namedview
     id="namedview10"
     pagecolor="#252525"
     bordercolor="#dadada"
     borderopacity="0.25"
     inkscape:showpageshadow="2"
     inkscape:pageopacity="0.0"
     inkscape:pagecheckerboard="0"
     inkscape:deskcolor="#d1d1d1"
     showgrid="false"
     inkscape:zoom="1.7503334"
     inkscape:cx="-48.562176"
     inkscape:cy="87.697577"
     inkscape:window-width="1920"
     inkscape:window-height="1056"
     inkscape:window-x="0"
     inkscape:window-y="0"
     inkscape:window-maximized="1"
     inkscape:current-layer="svg8" />
  <defs
     id="defs2" />
  <g
     id="g6"
     transform="matrix(3.3331086,0,0,3.3527262,102.2725,95.567047)"
     style="fill:#252525;fill-opacity:1;stroke:#dadada;stroke-opacity:1">
    <path
       stroke="none"
       fill="#252525"
       d="m -17,17.45 h 0.05 q 0.15,-1.3 1.1,-2.3 Q -14.65,14 -13,14 h 1 V -6.15 l -6.4,-6.4 Q -19,-13.15 -19,-14 v -12 q 0,-0.85 0.6,-1.4 0.55,-0.6 1.4,-0.6 h 6 q 0.85,0 1.45,0.6 0.55,0.55 0.55,1.4 v 6 h 4 v -6 q 0,-0.85 0.6,-1.4 0.55,-0.6 1.4,-0.6 h 6 q 0.85,0 1.45,0.6 Q 5,-26.85 5,-26 v 6 h 4 v -6 q 0,-0.85 0.6,-1.4 0.55,-0.6 1.4,-0.6 h 6 q 0.85,0 1.45,0.6 0.55,0.55 0.55,1.4 v 12 q 0,0.85 -0.55,1.45 L 12,-6.1 V 14 h 1 q 1.65,0 2.8,1.15 1,1 1.2,2.3 V 21 H -17 V 17.45 M 18,32 h -36 q -1.65,0 -2.85,-1.2 Q -22,29.65 -22,28 v -2.55 h 0.05 q 0.15,-1.3 1.1,-2.3 l 0.2,-0.15 h 41.3 l 0.15,0.15 q 1,1 1.2,2.3 V 28 q 0,1.65 -1.2,2.8 Q 19.65,32 18,32"
       id="path4"
       style="fill:#252525;fill-opacity:1;stroke:#dadada;stroke-opacity:1" />
  </g>
</svg>
