<?xml version="1.0" encoding="UTF-8" standalone="no"?>
<svg
   version="1.1"
   id="svg8"
   sodipodi:docname="peluncur.svg"
   width="204.545"
   height="204.545"
   inkscape:version="1.2.2 (b0a8486541, 2022-12-01)"
   inkscape:export-filename="peluncur.png"
   inkscape:export-xdpi="96"
   inkscape:export-ydpi="96"
   xmlns:inkscape="http://www.inkscape.org/namespaces/inkscape"
   xmlns:sodipodi="http://sodipodi.sourceforge.net/DTD/sodipodi-0.dtd"
   xmlns="http://www.w3.org/2000/svg"
   xmlns:svg="http://www.w3.org/2000/svg">
  <sodipodi:namedview
     id="namedview10"
     pagecolor="#252525"
     bordercolor="#dadada"
     borderopacity="0.25"
     inkscape:showpageshadow="2"
     inkscape:pageopacity="0.0"
     inkscape:pagecheckerboard="0"
     inkscape:deskcolor="#d1d1d1"
     showgrid="false"
     inkscape:zoom="4.3466667"
     inkscape:cx="36.119632"
     inkscape:cy="75.345091"
     inkscape:window-width="1920"
     inkscape:window-height="1056"
     inkscape:window-x="0"
     inkscape:window-y="0"
     inkscape:window-maximized="1"
     inkscape:current-layer="svg8" />
  <defs
     id="defs2" />
  <g
     id="g6"
     transform="matrix(3.1965746,0,0,3.1464622,102.2725,102.2725)"
     style="fill:#252525;fill-opacity:1;stroke:#dadada;stroke-opacity:1">
    <path
       stroke="none"
       fill="#252525"
       d="M -10,14 -7.55,1.8 -8.5,1.1 q -2.85,-2.35 -3.4,-5.45 l -0.1,-1.5 v -0.5 q 0.25,-7.15 3.5,-12.35 1.65,-2.5 3.6,-3.8 Q -6,-24 -6,-26 -6,-28.5 -4.25,-30.3 -2.5,-32 0,-32 q 2.5,0 4.25,1.7 1.75,1.8 1.75,4.3 0,2 -1.1,3.5 l 2,1.8 q 1.85,2.25 -0.25,4.5 l -4.4,4.45 q -0.75,0.7 -0.75,1.75 0,1.05 0.75,1.8 0.7,0.7 1.75,0.7 1.05,0 1.8,-0.7 l 2.45,-2.45 q 3.35,-3.1 3.7,2.45 L 12,-7.4 v 1.55 l -0.1,1.5 Q 11.35,-1.25 8.45,1.1 L 7.55,1.8 10,14 h 3 q 1.65,0 2.8,1.15 1,1 1.2,2.3 V 21 h -34 v -3.55 h 0.05 q 0.15,-1.3 1.1,-2.3 Q -14.65,14 -13,14 h 3 m 28,18 h -36 q -1.65,0 -2.85,-1.2 Q -22,29.65 -22,28 v -2.55 h 0.05 q 0.15,-1.3 1.1,-2.3 l 0.2,-0.15 h 41.3 l 0.15,0.15 q 1,1 1.2,2.3 V 28 q 0,1.65 -1.2,2.8 Q 19.65,32 18,32"
       id="path4"
       style="fill:#252525;fill-opacity:1;stroke:#dadada;stroke-opacity:1" />
  </g>
</svg>
