<?xml version="1.0" encoding="UTF-8" standalone="no"?>
<!-- Created with Inkscape (http://www.inkscape.org/) -->

<svg
   width="100mm"
   height="100mm"
   viewBox="0 0 100 100"
   version="1.1"
   id="svg5"
   xml:space="preserve"
   sodipodi:docname="peluncur_p.svg"
   inkscape:export-filename="pion_p.png"
   inkscape:export-xdpi="38.099998"
   inkscape:export-ydpi="38.099998"
   inkscape:version="1.2.2 (b0a8486541, 2022-12-01)"
   xmlns:inkscape="http://www.inkscape.org/namespaces/inkscape"
   xmlns:sodipodi="http://sodipodi.sourceforge.net/DTD/sodipodi-0.dtd"
   xmlns="http://www.w3.org/2000/svg"
   xmlns:svg="http://www.w3.org/2000/svg"><sodipodi:namedview
     id="namedview7"
     pagecolor="#ffffff"
     bordercolor="#000000"
     borderopacity="0.25"
     inkscape:showpageshadow="2"
     inkscape:pageopacity="0.0"
     inkscape:pagecheckerboard="0"
     inkscape:deskcolor="#d1d1d1"
     inkscape:document-units="mm"
     showgrid="false"
     showguides="true"
     inkscape:zoom="1.3763304"
     inkscape:cx="7.9922668"
     inkscape:cy="272.10036"
     inkscape:window-width="1920"
     inkscape:window-height="1056"
     inkscape:window-x="0"
     inkscape:window-y="0"
     inkscape:window-maximized="1"
     inkscape:current-layer="layer1" /><defs
     id="defs2" /><g
     inkscape:label="Layer 1"
     inkscape:groupmode="layer"
     id="layer1"><path
       id="rect14402"
       style="fill:none;fill-opacity:1;fill-rule:evenodd;stroke:#282828;stroke-width:4;stroke-linecap:square;stroke-linejoin:round;stroke-dasharray:none;stroke-opacity:1"
       d="m 48.649227,11.901599 c -1.589826,-8.2e-5 -2.87861,1.383336 -2.878377,3.089734 3.3e-5,1.706196 1.288739,3.089299 2.878377,3.089217 1.589638,8.2e-5 2.878344,-1.383021 2.878377,-3.089217 2.33e-4,-1.706398 -1.288551,-3.089816 -2.878377,-3.089734 z m -0.274919,11.098547 c -0.678263,0 -4.864841,4.514915 -9.303825,10.033497 -4.438979,5.518576 -9.196099,12.253945 -10.570931,14.967045 -1.374827,2.713095 -2.499589,6.327631 -2.499589,8.032068 0,1.704432 0.50794,4.081544 1.128614,5.282881 0.62067,1.201338 1.815571,2.971632 2.655135,3.934127 1.343394,1.540098 3.576494,1.748254 18.621085,1.734778 9.402211,-0.0084 17.571539,-0.345752 18.153414,-0.749825 0.581881,-0.404078 1.819089,-1.847167 2.749703,-3.20704 0.946303,-1.382793 1.691887,-4.375216 1.691887,-6.789766 0,-2.374523 -0.856734,-5.997835 -1.904277,-8.051188 -1.047542,-2.053354 -4.477087,-7.097964 -7.620723,-11.210169 -3.143641,-4.112206 -7.099517,-8.938982 -8.791195,-10.726477 -1.691678,-1.78749 -3.63103,-3.249931 -4.309298,-3.249931 z m -0.159163,17.745171 h 0.766361 c 0.522975,0 0.944129,0.421153 0.944129,0.944128 v 6.178951 h 4.544425 c 0.675196,0 1.21853,0.543852 1.21853,1.219047 v 0.125574 c 0,0.675195 -0.543334,1.219047 -1.21853,1.219047 h -4.544425 v 4.194576 c 0,0.522974 -0.421154,0.944128 -0.944129,0.944128 h -0.766361 c -0.522975,0 -0.943612,-0.421154 -0.943612,-0.944128 v -4.194576 h -4.804874 c -0.675196,0 -1.218531,-0.543852 -1.218531,-1.219047 v -0.125574 c 0,-0.675195 0.543335,-1.219047 1.218531,-1.219047 h 4.804874 v -6.178951 c 0,-0.522975 0.420637,-0.944128 0.943612,-0.944128 z m 4.882389,28.638562 c -1.331836,-4.1e-4 -2.815666,0.0053 -4.469494,0.01602 -8.50411,0.05496 -15.745864,0.384366 -16.093075,0.731739 -0.34721,0.347369 -0.903432,3.878449 -1.2361,7.846549 -0.46978,5.603497 -0.291875,7.412918 0.797884,8.102865 0.771708,0.488579 8.401032,0.895398 16.953487,0.90382 9.964923,0.0098 15.943388,-0.378442 16.646012,-1.081071 0.68231,-0.682305 0.896399,-3.420841 0.566374,-7.250203 -0.291681,-3.38445 -0.899805,-6.873573 -1.351339,-7.753532 -0.614676,-1.197907 -2.490873,-1.513322 -11.813749,-1.516186 z m -3.097485,5.369181 c 1.972622,7.8e-5 3.571744,1.57884 3.571875,3.5264 1.58e-4,1.947762 -1.599048,3.526838 -3.571875,3.526916 -1.972827,-7.8e-5 -3.572033,-1.579154 -3.571875,-3.526916 1.31e-4,-1.94756 1.599253,-3.526322 3.571875,-3.5264 z m -0.871265,14.247192 c -13.568366,0 -21.240397,0.370765 -21.658626,1.047482 -0.356196,0.576333 -0.392932,1.710404 -0.08217,2.520259 0.477181,1.243509 3.79489,1.430832 21.338233,1.202511 20.688448,-0.269253 20.775043,-0.279479 21.093286,-2.52026 0.319551,-2.24999 0.319702,-2.249992 -20.690727,-2.249992 z"
       sodipodi:nodetypes="cccccsssssscsssssssssscsssscsssscsssscsssssssssssscccccssssss" /></g></svg>
