<?xml version="1.0" encoding="UTF-8" standalone="no"?>
<!-- Created with Inkscape (http://www.inkscape.org/) -->

<svg
   width="100mm"
   height="100mm"
   viewBox="0 0 100 100"
   version="1.1"
   id="svg5"
   xml:space="preserve"
   sodipodi:docname="pion_p.svg"
   inkscape:export-filename="pion_p.png"
   inkscape:export-xdpi="38.099998"
   inkscape:export-ydpi="38.099998"
   inkscape:version="1.2.2 (b0a8486541, 2022-12-01)"
   xmlns:inkscape="http://www.inkscape.org/namespaces/inkscape"
   xmlns:sodipodi="http://sodipodi.sourceforge.net/DTD/sodipodi-0.dtd"
   xmlns="http://www.w3.org/2000/svg"
   xmlns:svg="http://www.w3.org/2000/svg"><sodipodi:namedview
     id="namedview7"
     pagecolor="#ffffff"
     bordercolor="#000000"
     borderopacity="0.25"
     inkscape:showpageshadow="2"
     inkscape:pageopacity="0.0"
     inkscape:pagecheckerboard="0"
     inkscape:deskcolor="#d1d1d1"
     inkscape:document-units="mm"
     showgrid="false"
     showguides="true"
     inkscape:zoom="2.0028354"
     inkscape:cx="238.16236"
     inkscape:cy="185.98633"
     inkscape:window-width="1920"
     inkscape:window-height="1056"
     inkscape:window-x="0"
     inkscape:window-y="0"
     inkscape:window-maximized="1"
     inkscape:current-layer="layer1" /><defs
     id="defs2" /><g
     inkscape:label="Layer 1"
     inkscape:groupmode="layer"
     id="layer1"><path
       id="rect5593"
       style="fill:#282828;fill-rule:evenodd;stroke:#282828;stroke-width:4;stroke-linecap:butt;stroke-linejoin:bevel;stroke-opacity:1;stroke-dasharray:none;paint-order:stroke fill markers;fill-opacity:0"
       d="m 50.046041,25.999963 c -1.729908,0 -4.40643,0.65212 -5.947441,1.449008 -1.54101,0.796887 -3.543183,2.580856 -4.449857,3.964615 -0.906674,1.383759 -1.648995,4.456555 -1.648995,6.828524 0,2.371971 0.700824,5.313141 1.557011,6.535519 1.395031,1.991686 2.407415,2.220823 9.749792,2.2071 4.506309,-0.0084 8.688327,-0.345747 9.29349,-0.749825 0.605162,-0.404078 1.618172,-1.71786 2.250508,-2.919202 0.632337,-1.20134 1.149284,-3.361238 1.149284,-4.799707 0,-1.438469 -0.667964,-3.907679 -1.484664,-5.487003 -0.8167,-1.579325 -2.798681,-3.806726 -4.404382,-4.950086 -1.6057,-1.14336 -4.334839,-2.078943 -6.064746,-2.078943 z m 0.08268,23.000147 c -7.294237,0 -12.264823,0.411596 -12.658142,1.047998 -0.356196,0.576337 -0.391756,1.715421 -0.07855,2.531628 0.46764,1.218651 2.674127,1.433487 12.338782,1.201994 11.345364,-0.271751 11.780623,-0.362645 12.088667,-2.531628 0.316168,-2.226178 0.192613,-2.249992 -11.690759,-2.249992 z m -4.280876,7.087423 c -2.847653,0.0384 -2.847888,0.691374 -2.847888,3.301607 0,1.914171 -0.670893,6.669305 -1.490865,10.567313 -0.819971,3.89801 -2.395018,8.859653 -3.500045,11.025684 -1.105025,2.166032 -2.009179,4.40608 -2.009179,4.977991 0,0.670267 4.975945,1.03973 14.000179,1.03973 7.699992,0 14.000179,-0.240017 14.000179,-0.533301 0,-0.293284 -1.071488,-2.655596 -2.380733,-5.249809 -1.309247,-2.594213 -2.890663,-7.19195 -3.514515,-10.216947 -0.62385,-3.024997 -1.240541,-7.524909 -1.369942,-9.999907 -0.235274,-4.499995 -0.23511,-4.499883 -6.985103,-4.795573 -1.687498,-0.07392 -2.95287,-0.129587 -3.902088,-0.116788 z m 4.127914,32.912719 c -12.76471,0 -20.088905,0.373888 -20.505208,1.047482 -0.356196,0.576337 -0.396911,1.701444 -0.09043,2.500105 0.461345,1.202251 3.985395,1.452108 20.481437,1.452108 15.027672,0 20.037578,-0.30726 20.384285,-1.250053 0.252824,-0.687499 0.263074,-1.812606 0.02326,-2.500106 -0.329071,-0.943395 -5.306444,-1.249536 -20.293335,-1.249536 z"
       sodipodi:nodetypes="ssssscsssssssssssssssssssssssssssssss" /></g></svg>
