<?xml version="1.0" encoding="UTF-8" standalone="no"?>
<!-- Created with Inkscape (http://www.inkscape.org/) -->

<svg
   width="100mm"
   height="100mm"
   viewBox="0 0 100 100"
   version="1.1"
   id="svg5"
   xml:space="preserve"
   sodipodi:docname="kuda_h.svg"
   inkscape:export-filename="pion_p.png"
   inkscape:export-xdpi="38.099998"
   inkscape:export-ydpi="38.099998"
   inkscape:version="1.2.2 (b0a8486541, 2022-12-01)"
   xmlns:inkscape="http://www.inkscape.org/namespaces/inkscape"
   xmlns:sodipodi="http://sodipodi.sourceforge.net/DTD/sodipodi-0.dtd"
   xmlns="http://www.w3.org/2000/svg"
   xmlns:svg="http://www.w3.org/2000/svg"><sodipodi:namedview
     id="namedview7"
     pagecolor="#ffffff"
     bordercolor="#000000"
     borderopacity="0.25"
     inkscape:showpageshadow="2"
     inkscape:pageopacity="0.0"
     inkscape:pagecheckerboard="0"
     inkscape:deskcolor="#d1d1d1"
     inkscape:document-units="mm"
     showgrid="false"
     showguides="true"
     inkscape:zoom="1.3763304"
     inkscape:cx="127.87627"
     inkscape:cy="189.99798"
     inkscape:window-width="1920"
     inkscape:window-height="1056"
     inkscape:window-x="0"
     inkscape:window-y="0"
     inkscape:window-maximized="1"
     inkscape:current-layer="layer1" /><defs
     id="defs2" /><g
     inkscape:label="Layer 1"
     inkscape:groupmode="layer"
     id="layer1"><path
       id="rect16066"
       style="fill:#fff;fill-opacity:1;fill-rule:evenodd;stroke:#fff;stroke-width:0;stroke-linecap:square;stroke-linejoin:round;stroke-dasharray:none;stroke-opacity:1"
       d="m 51.384977,17.654736 c -0.808738,0.0163 -1.555001,0.09835 -2.124418,0.250631 -1.518443,0.406095 -2.64519,1.156135 -2.50424,1.666565 0.140949,0.510428 1.735598,0.928109 3.543453,0.928109 1.807856,0 4.474196,0.777562 5.92522,1.72806 1.451023,0.950497 5.818721,5.50571 9.706384,10.122379 7.06848,8.393945 7.068819,8.393978 7.068819,23.355164 0,8.228652 0.309172,15.270532 0.687297,15.648657 0.378124,0.378125 1.165389,0.52853 1.749764,0.334346 0.672889,-0.223596 1.163544,-6.03356 1.337386,-15.84451 C 77.049141,40.352561 77.048768,40.352333 67.938489,29.699479 61.078,21.677356 57.987966,18.814562 55.425041,18.106905 54.255123,17.783875 52.732875,17.627566 51.384977,17.654736 Z M 40.37738,20.999752 c -1.307653,0 -2.377632,0.26698 -2.377632,0.592728 0,0.325749 0.918965,1.760032 2.041736,3.187403 2.0414,2.59522 2.041243,2.595032 -6.000151,10.678418 -4.422768,4.445862 -8.04137,8.76148 -8.04137,9.590112 0,0.828633 0.700308,2.506594 1.556495,3.728971 0.856186,1.222377 2.352956,2.222604 3.325895,2.222604 0.972939,0 2.77388,-1.069515 4.001823,-2.376599 1.470431,-1.565204 3.748507,-2.547139 6.673494,-2.876827 2.442627,-0.27532 5.116456,-1.061209 5.941756,-1.746147 0.915885,-0.760117 1.500684,-2.950996 1.500684,-5.622913 0,-2.407652 0.441298,-4.37751 0.980819,-4.37751 0.53952,0 1.262859,1.123753 1.607653,2.497522 0.344794,1.373768 0.343142,3.237622 -0.0036,4.141349 -0.346792,0.903726 0.1002,2.758274 0.993221,4.121196 1.593931,2.432646 1.524834,2.58117 -3.78995,8.109065 -2.977677,3.097076 -8.244625,8.634629 -11.704195,12.305709 -3.459569,3.671079 -6.957658,7.627703 -7.773685,8.792745 -0.915842,1.307549 -1.14688,2.580302 -0.603064,3.325379 0.484547,0.663872 2.57897,3.344761 4.653979,5.957259 3.772742,4.749995 3.772764,4.749581 19.091858,4.749581 15.319094,0 15.318876,2.99e-4 16.932817,-3.400826 1.314067,-2.769193 1.613855,-7.030117 1.613855,-22.931934 0,-19.530636 3.8e-5,-19.530393 -8.147307,-29.220439 -8.147344,-9.690045 -8.146999,-9.690244 -12.923759,-9.124507 -3.487962,0.413097 -5.100333,0.176342 -5.975346,-0.877983 -0.65908,-0.794143 -2.268354,-1.444356 -3.576009,-1.444356 z m 12.681397,69.000439 c -10.215289,0 -17.185949,0.396947 -17.558618,0.999939 -0.339919,0.55 -0.339919,1.449879 0,1.999878 0.372669,0.602993 7.343329,0.999939 17.558618,0.999939 16.2743,0 16.941085,-0.07859 16.941085,-1.999878 0,-1.921293 -0.666785,-1.999878 -16.941085,-1.999878 z"
       sodipodi:nodetypes="sssssssssssssssssssssssssscsssssssssssssssssss" /></g></svg>
