<?xml version="1.0" encoding="UTF-8" standalone="no"?>
<!-- Created with Inkscape (http://www.inkscape.org/) -->

<svg
   width="100mm"
   height="100mm"
   viewBox="0 0 100 100"
   version="1.1"
   id="svg5"
   xml:space="preserve"
   sodipodi:docname="ratu_h.svg"
   inkscape:export-filename="pion_p.png"
   inkscape:export-xdpi="38.099998"
   inkscape:export-ydpi="38.099998"
   inkscape:version="1.2.2 (b0a8486541, 2022-12-01)"
   xmlns:inkscape="http://www.inkscape.org/namespaces/inkscape"
   xmlns:sodipodi="http://sodipodi.sourceforge.net/DTD/sodipodi-0.dtd"
   xmlns="http://www.w3.org/2000/svg"
   xmlns:svg="http://www.w3.org/2000/svg"><sodipodi:namedview
     id="namedview7"
     pagecolor="#ffffff"
     bordercolor="#000000"
     borderopacity="0.25"
     inkscape:showpageshadow="2"
     inkscape:pageopacity="0.0"
     inkscape:pagecheckerboard="0"
     inkscape:deskcolor="#d1d1d1"
     inkscape:document-units="mm"
     showgrid="false"
     showguides="true"
     inkscape:zoom="1.6230025"
     inkscape:cx="296.3643"
     inkscape:cy="167.89869"
     inkscape:window-width="1920"
     inkscape:window-height="1056"
     inkscape:window-x="0"
     inkscape:window-y="0"
     inkscape:window-maximized="1"
     inkscape:current-layer="layer1" /><defs
     id="defs2" /><g
     inkscape:label="Layer 1"
     inkscape:groupmode="layer"
     id="layer1"><path
       id="rect11155"
       style="fill:#ffffff;fill-opacity:1;fill-rule:evenodd;stroke:none;stroke-width:3.77237;stroke-linecap:square;stroke-linejoin:bevel;stroke-dasharray:none;stroke-opacity:1"
       d="m 50.634635,23.000146 c -1.874677,0 -4.515365,0.905028 -5.962426,2.043287 -1.42865,1.123775 -3.548745,3.378865 -4.711341,5.01158 -2.11381,2.968572 -2.113826,2.968835 1.339453,7.707023 1.899304,2.606004 4.641135,7.100524 6.093169,9.988021 1.452034,2.887497 2.828809,5.249809 3.059244,5.249809 0.230437,0 1.823195,-2.763084 3.539319,-6.140194 1.716124,-3.377111 4.21983,-7.581833 5.564002,-9.344132 1.344171,-1.762301 2.443778,-3.949585 2.443778,-4.860169 0,-0.910584 -1.799758,-3.455471 -3.999756,-5.655469 -3.081787,-3.081787 -4.772779,-3.999756 -7.365442,-3.999756 z m -23.252844,8.347811 c -0.488487,0.0079 -0.961881,0.0597 -1.407666,0.157613 -1.584026,0.347911 -4.026232,1.534125 -5.427059,2.636015 -1.966507,1.546856 -2.547131,2.909811 -2.547131,5.980514 0,2.187392 0.741962,5.417154 1.648478,7.177339 0.906517,1.760186 2.759852,4.663271 4.118612,6.45077 2.470473,3.249996 2.470339,3.24993 13.35164,3.24993 6.246506,0 10.881506,-0.406697 10.881506,-0.95498 0,-0.525305 -1.391084,-3.867595 -3.091284,-7.426937 C 43.208686,45.05888 40.238255,40.30206 38.308256,38.04729 36.378257,35.79252 33.46142,33.255885 31.826481,32.410425 c -1.380339,-0.713801 -2.97923,-1.086177 -4.44469,-1.062468 z m 46.092277,0.07286 c -0.910163,0.0063 -1.836343,0.203513 -2.979663,0.580843 -1.833666,0.605165 -5.144224,3.064533 -7.357174,5.4653 -2.212949,2.400767 -5.399491,7.090086 -7.080704,10.420552 -1.681215,3.330466 -3.056661,6.74335 -3.056661,7.584033 0,1.27768 1.78535,1.528589 10.878405,1.528589 10.878212,0 10.878178,9.9e-5 14.577922,-5.371765 2.108906,-3.062038 3.929773,-7.085099 4.234367,-9.356018 0.300613,-2.241231 0.01217,-4.959213 -0.658875,-6.213057 -0.656052,-1.225847 -2.770011,-2.88779 -4.697904,-3.693315 -1.545522,-0.64576 -2.689503,-0.95326 -3.859713,-0.945162 z M 50.49976,59.999955 c -23.499977,0 -23.499858,1.09e-4 -23.499858,2.500106 0,2.499998 -1.19e-4,2.500106 23.499858,2.500106 23.499976,0 23.500374,-1.08e-4 23.500374,-2.500106 0,-2.499997 -3.98e-4,-2.500106 -23.500374,-2.500106 z m 0.617017,8.000029 c -18.737408,0 -18.88835,0.01738 -19.486666,2.249992 -0.331637,1.237498 -0.60899,4.987511 -0.6165,8.333341 -0.0075,3.345831 0.286523,6.38331 0.65319,6.749976 0.366666,0.366666 9.05179,0.666626 19.300114,0.666626 11.118956,0 19.037321,-0.404351 19.635494,-1.002523 0.611257,-0.611258 0.722068,-3.245237 0.28422,-6.749976 -0.394923,-3.161162 -0.755608,-6.759946 -0.802018,-7.997444 -0.08438,-2.249998 -0.08448,-2.249992 -18.967834,-2.249992 z M 55.390934,88.1941 c -1.594594,0.0059 -3.248239,0.01814 -4.946468,0.03721 -22.499793,0.252602 -23.939529,0.380039 -24.279655,2.148706 -0.198863,1.034094 0.245405,2.264734 0.98702,2.734717 0.741615,0.469982 11.780379,0.861292 24.530802,0.869714 22.681218,0.01498 23.196886,-0.02992 23.849191,-2.085144 0.366698,-1.155364 0.253677,-2.513596 -0.251148,-3.01842 C 74.82449,88.424694 66.553094,88.152738 55.390934,88.1941 Z"
       sodipodi:nodetypes="ssssssssssssssssssssssssssssssssssssssssssssssssssssssss" /><path
       sodipodi:type="star"
       style="fill:#ffffff;fill-opacity:1;fill-rule:evenodd;stroke:#ffffff;stroke-width:0.5;stroke-linecap:square;stroke-linejoin:round;stroke-dasharray:none;stroke-opacity:1"
       id="path11509"
       inkscape:flatsided="false"
       sodipodi:sides="5"
       sodipodi:cx="50.049629"
       sodipodi:cy="11.772534"
       sodipodi:r1="1.8262635"
       sodipodi:r2="0.91313183"
       sodipodi:arg1="0.88481673"
       sodipodi:arg2="1.5131353"
       inkscape:rounded="0"
       inkscape:randomized="0"
       d="m 51.206442,13.185695 -1.10419,-0.501546 -1.039144,0.62527 0.135786,-1.205133 -0.915781,-0.795065 1.18811,-0.243267 0.47316,-1.116648 0.598507,1.054786 1.20821,0.104939 -0.818213,0.89516 z"
       inkscape:transform-center-x="0.029997222"
       inkscape:transform-center-y="-0.13205116"
       transform="matrix(0.92232556,0,0,0.92232556,3.9575776,0.94527736)" /></g></svg>
