<?xml version="1.0" encoding="UTF-8" standalone="no"?>
<svg
   version="1.1"
   id="svg1122"
   sodipodi:docname="ratu.svg"
   width="204.545"
   height="204.545"
   inkscape:export-filename="ratu.png"
   inkscape:export-xdpi="96"
   inkscape:export-ydpi="96"
   inkscape:version="1.2.2 (b0a8486541, 2022-12-01)"
   xmlns:inkscape="http://www.inkscape.org/namespaces/inkscape"
   xmlns:sodipodi="http://sodipodi.sourceforge.net/DTD/sodipodi-0.dtd"
   xmlns="http://www.w3.org/2000/svg"
   xmlns:svg="http://www.w3.org/2000/svg">
  <sodipodi:namedview
     id="namedview1124"
     pagecolor="#f5f5f5"
     bordercolor="#252525"
     borderopacity="0.25"
     inkscape:showpageshadow="2"
     inkscape:pageopacity="0.0"
     inkscape:pagecheckerboard="0"
     inkscape:deskcolor="#d1d1d1"
     showgrid="false"
     inkscape:zoom="4.3466667"
     inkscape:cx="36.119632"
     inkscape:cy="75.345091"
     inkscape:window-width="1920"
     inkscape:window-height="1056"
     inkscape:window-x="0"
     inkscape:window-y="0"
     inkscape:window-maximized="1"
     inkscape:current-layer="svg1122" />
  <defs
     id="defs1116" />
  <g
     id="g1120"
     transform="matrix(3.1966617,0,0,3.1464615,102.2725,102.2725)"
     style="stroke:#252525;stroke-opacity:1">
    <path
       stroke="none"
       fill="#f5f5f5"
       d="m -7.1,-22.1 q 1.35,-1.35 3,-2.05 Q -5,-25.4 -5,-27 -5,-29.05 -3.55,-30.55 -2.05,-32 0,-32 q 2.05,0 3.5,1.45 1.5,1.5 1.5,3.55 0,1.6 -0.9,2.85 l 2.95,2.05 q 2.05,2.05 2.7,4.7 l -2.9,1.85 -3.9,-2.55 H 3 Q 1.6,-19 0,-19 q -1.6,0 -2.85,0.9 l -4,2.55 -2.85,-1.85 q 0.6,-2.65 2.6,-4.7 M -9,14 V 4 h -1 Q -11.65,4 -12.85,2.8 -14,1.65 -14,0 v -1.8 l 1.4,-0.05 -3.3,-11.3 0.05,-1.35 q 0.2,-0.65 0.8,-1.05 0.55,-0.4 1.3,-0.45 0.7,0 1.3,0.4 l 5.6,3.6 5.6,-3.6 Q -0.7,-16 0,-16 q 0.7,0 1.3,0.4 l 5.55,3.6 5.6,-3.6 q 0.6,-0.4 1.3,-0.4 0.75,0.05 1.3,0.45 l 0.85,1.05 q 0.2,0.7 0,1.35 L 12.6,-1.85 14,-1.8 V 0 Q 14,1.65 12.8,2.8 11.65,4 10,4 H 9 v 10 h 1 q 1.65,0 2.8,1.15 1,1 1.2,2.3 V 21 h -28 v -3.55 h 0.05 q 0.15,-1.3 1.1,-2.3 Q -11.65,14 -10,14 h 1 m 24,18 h -30 q -1.65,0 -2.85,-1.2 Q -19,29.65 -19,28 v -2.55 h 0.05 q 0.15,-1.3 1.1,-2.3 l 0.2,-0.15 h 35.3 l 0.15,0.15 q 1,1 1.2,2.3 V 28 q 0,1.65 -1.2,2.8 Q 16.65,32 15,32"
       id="path1118"
       style="stroke:#252525;stroke-opacity:1" />
  </g>
</svg>
