<?xml version="1.0" encoding="UTF-8" standalone="no"?>
<!-- Created with Inkscape (http://www.inkscape.org/) -->

<svg
   width="100mm"
   height="100mm"
   viewBox="0 0 100 100"
   version="1.1"
   id="svg5"
   xml:space="preserve"
   sodipodi:docname="raja_h.svg"
   inkscape:export-filename="pion_p.png"
   inkscape:export-xdpi="38.099998"
   inkscape:export-ydpi="38.099998"
   inkscape:version="1.2.2 (b0a8486541, 2022-12-01)"
   xmlns:inkscape="http://www.inkscape.org/namespaces/inkscape"
   xmlns:sodipodi="http://sodipodi.sourceforge.net/DTD/sodipodi-0.dtd"
   xmlns="http://www.w3.org/2000/svg"
   xmlns:svg="http://www.w3.org/2000/svg"><sodipodi:namedview
     id="namedview7"
     pagecolor="#ffffff"
     bordercolor="#000000"
     borderopacity="0.25"
     inkscape:showpageshadow="2"
     inkscape:pageopacity="0.0"
     inkscape:pagecheckerboard="0"
     inkscape:deskcolor="#d1d1d1"
     inkscape:document-units="mm"
     showgrid="false"
     showguides="true"
     inkscape:zoom="1.0308541"
     inkscape:cx="475.33402"
     inkscape:cy="346.79982"
     inkscape:window-width="1920"
     inkscape:window-height="1056"
     inkscape:window-x="0"
     inkscape:window-y="0"
     inkscape:window-maximized="1"
     inkscape:current-layer="layer1" /><defs
     id="defs2" /><g
     inkscape:label="Layer 1"
     inkscape:groupmode="layer"
     id="layer1"><path
       id="rect12044"
       style="fill:#ffffff;fill-opacity:1;fill-rule:evenodd;stroke:none;stroke-width:1;stroke-linecap:square;stroke-linejoin:round;stroke-dasharray:none;stroke-opacity:1"
       d="m 49.029049,23.000146 c -0.378005,0 -1.637736,2.137601 -2.799829,4.750098 -1.162094,2.612498 -3.342471,7.674963 -4.845183,11.249959 -1.502712,3.574997 -2.991618,6.811097 -3.308325,7.19181 -0.316707,0.380712 -2.37595,-0.900996 -4.575948,-2.848405 -2.199998,-1.947409 -5.886042,-5.296125 -8.191231,-7.441923 -2.30519,-2.1458 -4.667502,-3.901571 -5.249809,-3.901571 -0.582307,0 -1.05885,0.164249 -1.05885,0.365352 0,0.201104 1.308148,5.35145 2.906799,11.44478 1.598653,6.09333 3.205313,11.561628 3.570325,12.15223 0.44985,0.727873 8.131503,0.987469 23.843506,0.805635 23.179676,-0.268258 23.179602,-0.268215 26.093497,-12.020972 1.602643,-6.464016 2.632425,-12.034379 2.288233,-12.378572 -0.344193,-0.344193 -4.478472,2.871573 -9.187036,7.146334 -4.708566,4.274759 -8.698325,7.595426 -8.866126,7.378877 C 59.48127,46.67723 57.177562,41.21231 54.530005,34.749817 51.882449,28.287323 49.407054,23.000146 49.029049,23.000146 Z m -17.70693,2.032435 c -0.682985,-0.01901 -1.462573,2.244916 -1.855184,5.387268 -0.654386,5.237532 -0.564368,5.522918 2.677873,8.4708 1.845378,1.67784 3.899675,3.063793 4.565096,3.079916 0.665422,0.01612 1.738721,-1.736484 2.385384,-3.894853 1.142166,-3.812208 1.0647,-4.054064 -2.709912,-8.467183 -2.137084,-2.49859 -4.415334,-4.557911 -5.063257,-4.575948 z m 35.31309,0.276985 c -0.690188,-0.07901 -2.721956,1.554585 -4.704622,3.812171 -2.114845,2.40809 -3.864684,5.144662 -3.888135,6.081282 -0.02345,0.93662 0.479996,2.848992 1.118278,4.24987 0.638282,1.400878 1.674911,2.547131 2.303735,2.547131 0.628825,0 2.546257,-1.462432 4.261239,-3.24993 2.838599,-2.958628 3.068568,-3.678235 2.563668,-8.023283 -0.305043,-2.625126 -0.995524,-5.045 -1.534274,-5.377967 -0.03367,-0.02081 -0.07388,-0.03401 -0.119889,-0.03927 z M 49.059021,59.999955 c -14.914199,0 -23.167709,0.366755 -23.588741,1.047998 -0.356196,0.576338 -0.396911,1.701445 -0.09043,2.500106 0.464826,1.211321 4.376472,1.452108 23.588741,1.452108 23.031362,0 23.031669,-1.08e-4 23.031669,-2.500106 0,-2.499997 -2.75e-4,-2.500106 -22.941235,-2.500106 z m -0.417546,7.078638 c -8.722119,0.03711 -16.449146,0.294325 -17.171561,0.571541 -0.825149,0.31664 -1.571427,3.255531 -2.007113,7.904944 -0.381442,4.070542 -0.430777,8.085877 -0.109554,8.92297 0.494636,1.288999 3.502277,1.521871 19.646863,1.521871 15.382648,0 19.165888,-0.269282 19.59777,-1.394747 0.294362,-0.767097 0.08248,-4.660906 -0.470772,-8.653219 -0.553249,-3.992314 -1.59578,-7.63721 -2.316655,-8.099764 -0.720874,-0.462552 -8.446858,-0.810706 -17.168978,-0.773596 z M 37.43079,88.149141 c -9.369779,0.01664 -11.611515,0.363654 -12.415779,1.332736 -1.013206,1.220838 -1.013206,1.815151 0,3.03599 1.072352,1.292106 4.700719,1.478237 24.372672,1.250053 23.112517,-0.268093 23.112284,-0.267792 23.112284,-2.76779 0,-2.499997 2.33e-4,-2.500214 -23.112284,-2.768306 -4.917988,-0.05705 -8.833633,-0.08823 -11.956893,-0.08268 z"
       sodipodi:nodetypes="sssssssssssssssssssssssssssssssssssssssssssssssssssssss" /><path
       sodipodi:type="star"
       style="fill:#ffffff;fill-opacity:1;fill-rule:evenodd;stroke:none;stroke-width:1;stroke-linecap:square;stroke-linejoin:round;stroke-dasharray:none;stroke-opacity:1"
       id="path11704"
       inkscape:flatsided="false"
       sodipodi:sides="5"
       sodipodi:cx="-75.425368"
       sodipodi:cy="-16.449687"
       sodipodi:r1="4.9478426"
       sodipodi:r2="2.4739215"
       sodipodi:arg1="0.91935193"
       sodipodi:arg2="1.5476705"
       inkscape:rounded="0"
       inkscape:randomized="0"
       d="m -72.425316,-12.515118 -2.942847,-1.461308 -2.872136,1.595809 0.480397,-3.250383 -2.405242,-2.238431 3.239748,-0.547539 1.385614,-2.979236 1.521878,2.911985 3.261599,0.397163 -2.299176,2.347245 z"
       inkscape:transform-center-x="0.035356127"
       inkscape:transform-center-y="-0.43872557"
       transform="translate(124.25603,26.624338)" /></g></svg>
