<?xml version="1.0" encoding="UTF-8" standalone="no"?>
<svg
   version="1.1"
   id="svg431"
   sodipodi:docname="raja.svg"
   width="204.545"
   height="204.545"
   inkscape:version="1.2.2 (b0a8486541, 2022-12-01)"
   inkscape:export-filename="raja.png"
   inkscape:export-xdpi="96"
   inkscape:export-ydpi="96"
   xmlns:inkscape="http://www.inkscape.org/namespaces/inkscape"
   xmlns:sodipodi="http://sodipodi.sourceforge.net/DTD/sodipodi-0.dtd"
   xmlns="http://www.w3.org/2000/svg"
   xmlns:svg="http://www.w3.org/2000/svg">
  <sodipodi:namedview
     id="namedview433"
     pagecolor="#f5f5f5"
     bordercolor="#252525"
     borderopacity="0.25"
     inkscape:showpageshadow="2"
     inkscape:pageopacity="0.0"
     inkscape:pagecheckerboard="0"
     inkscape:deskcolor="#d1d1d1"
     showgrid="false"
     inkscape:zoom="4.3466667"
     inkscape:cx="36.119632"
     inkscape:cy="75.345091"
     inkscape:window-width="1920"
     inkscape:window-height="1056"
     inkscape:window-x="0"
     inkscape:window-y="0"
     inkscape:window-maximized="1"
     inkscape:current-layer="svg431" />
  <defs
     id="defs425" />
  <g
     id="g429"
     transform="matrix(3.1468462,0,0,3.1468462,102.2725,102.2725)"
     style="fill:#f5f5f5;fill-opacity:1;stroke:#252525;stroke-opacity:1">
    <path
       stroke="none"
       fill="#f5f5f5"
       d="m -7.1,-16.1 q 1.4,-1.4 3.1,-2.1 V -20 h -2 q -0.85,0 -1.4,-0.55 Q -8,-21.15 -8,-22 v -4 q 0,-0.85 0.6,-1.4 0.55,-0.6 1.4,-0.6 h 2 v -2 q 0,-0.85 0.6,-1.4 0.55,-0.6 1.4,-0.6 h 4 q 0.85,0 1.45,0.6 Q 4,-30.85 4,-30 v 2 h 2 q 0.85,0 1.45,0.6 Q 8,-26.85 8,-26 v 4 q 0,0.85 -0.55,1.45 Q 6.85,-20 6,-20 H 4 v 1.8 q 1.65,0.7 3.05,2.1 1.4,1.4 2.15,3.1 H -9.2 q 0.7,-1.7 2.1,-3.1 M -9,14 v -4 h -1 Q -11.65,10 -12.85,8.8 -14,7.65 -14,6 V 3.45 h 0.05 l 0.65,-1.7 -2.6,-8.9 0.05,-1.35 q 0.2,-0.65 0.8,-1.05 0.55,-0.4 1.3,-0.45 h 27.5 q 0.75,0.05 1.3,0.45 l 0.85,1.05 q 0.2,0.7 0,1.35 l -2.6,8.9 Q 13.85,2.5 14,3.45 V 6 Q 14,7.65 12.8,8.8 11.65,10 10,10 H 9 v 4 h 1 q 1.65,0 2.8,1.15 1,1 1.2,2.3 V 21 h -28 v -3.55 h 0.05 q 0.15,-1.3 1.1,-2.3 Q -11.65,14 -10,14 h 1 m 24,18 h -30 q -1.65,0 -2.85,-1.2 Q -19,29.65 -19,28 v -2.55 h 0.05 q 0.15,-1.3 1.1,-2.3 l 0.2,-0.15 h 35.3 l 0.15,0.15 q 1,1 1.2,2.3 V 28 q 0,1.65 -1.2,2.8 Q 16.65,32 15,32"
       id="path427"
       style="fill:#f5f5f5;fill-opacity:1;stroke:#252525;stroke-opacity:1" />
  </g>
</svg>
